<svg width="1280" height="641" viewBox="0 0 1280 641" fill="none" xmlns="http://www.w3.org/2000/svg">
<g clip-path="url(#clip0_29330_39)">
<path d="M943.271 285.833C957.314 291.685 970.576 298.707 983.448 306.899C1069.65 360.732 1124.26 465.669 1108.27 565.925C1091.89 667.74 984.228 812.467 877.74 833.532C843.024 840.554 807.528 830.802 773.593 820.269C716.643 802.715 663.204 774.237 607.034 757.853C585.191 751.612 561.397 750.051 540.333 758.633C503.667 773.457 494.695 805.445 479.093 837.824C461.54 874.493 431.895 905.311 396.008 924.426C322.286 963.435 227.11 945.101 158.848 902.97C57.431 840.554 21.1549 717.673 54.7006 606.105C63.2821 577.237 76.9344 548.76 99.5582 528.475C138.175 493.366 196.295 487.125 247.003 499.998C282.109 508.97 314.095 526.134 344.52 544.859C369.484 560.463 392.498 581.919 423.313 581.919C485.724 582.309 504.837 501.948 524.73 457.087C550.865 397.792 594.942 345.909 649.552 311.19C737.707 254.626 847.315 244.873 943.271 285.833Z" fill="url(#paint0_linear_29330_39)"/>
<path d="M943.304 286.071C957.34 291.921 970.596 298.941 983.462 307.132C1069.63 360.954 1124.21 465.87 1108.22 566.105C1091.85 667.9 984.242 812.597 877.803 833.658C843.104 840.678 807.624 830.928 773.704 820.397C716.781 802.847 663.367 774.375 607.224 757.994C585.39 751.754 561.607 750.194 540.553 758.774C503.904 773.595 494.937 805.577 479.342 837.948C461.797 874.61 432.166 905.422 396.296 924.533C322.608 963.535 227.476 945.204 159.247 903.082C57.8768 840.678 21.6177 717.822 55.1477 606.277C63.7251 577.415 77.3711 548.944 99.9844 528.663C138.583 493.561 196.676 487.321 247.361 500.191C282.45 509.162 314.421 526.323 344.832 545.044C369.784 560.644 392.787 582.095 423.588 582.095C485.97 582.485 505.074 502.141 524.958 457.289C551.08 398.006 595.137 346.134 649.721 311.422C737.835 254.869 847.392 245.119 943.304 286.071Z" fill="url(#paint1_radial_29330_39)"/>
<path d="M24.6659 1087.1C-151.644 954.073 -48.6665 661.109 121.012 571.386C184.593 537.837 258.706 524.964 330.088 534.326C394.449 542.909 474.802 564.754 540.724 539.788C590.652 520.673 613.666 473.471 639.8 430.56C712.353 311.19 895.294 288.954 986.179 402.083C1019.72 443.824 1033.38 501.948 1016.99 553.051C978.378 671.641 848.876 620.928 775.544 684.515C746.289 709.871 738.487 760.584 721.324 794.523C703.771 829.241 682.318 862.4 659.304 893.998C610.936 960.705 552.036 1021.56 484.164 1068.76C348.811 1163.17 179.522 1191.25 36.368 1095.68C32.4673 1092.95 28.5666 1090.22 24.6659 1087.1Z" fill="url(#paint2_linear_29330_39)"/>
<path d="M24.6659 1087.1C-151.644 954.073 -48.6665 661.109 121.012 571.386C184.593 537.837 258.706 524.964 330.088 534.326C394.449 542.909 474.802 564.754 540.724 539.788C590.652 520.673 613.666 473.471 639.8 430.56C712.353 311.19 895.294 288.954 986.179 402.083C1019.72 443.824 1033.38 501.948 1016.99 553.051C978.378 671.641 848.876 620.928 775.544 684.515C746.289 709.871 738.487 760.584 721.324 794.523C703.771 829.241 682.318 862.4 659.304 893.998C610.936 960.705 552.036 1021.56 484.164 1068.76C348.811 1163.17 179.522 1191.25 36.368 1095.68C32.4673 1092.95 28.5666 1090.22 24.6659 1087.1Z" fill="url(#paint3_radial_29330_39)"/>
<path d="M455.5 441C438.103 441 424 426.897 424 409.5C424 392.103 438.103 378 455.5 378C472.897 378 487 392.103 487 409.5C487 426.897 472.897 441 455.5 441Z" fill="url(#paint4_linear_29330_39)"/>
</g>
<g clip-path="url(#clip1_29330_39)">
<path d="M1144.8 275.298C1160.23 281.669 1174.81 289.313 1188.95 298.231C1283.68 356.837 1343.69 471.075 1326.12 580.218C1308.12 691.059 1189.81 848.614 1072.79 871.547C1034.64 879.191 995.628 868.574 958.335 857.108C895.752 837.997 837.026 806.996 775.3 789.159C751.296 782.364 725.148 780.666 702 790.009C661.707 806.146 651.848 840.97 634.702 876.218C615.412 916.138 582.835 949.688 543.399 970.497C462.383 1012.96 357.792 993.005 282.777 947.14C171.327 879.191 131.463 745.417 168.327 623.959C177.757 592.533 192.76 561.532 217.622 539.448C260.059 501.227 323.928 494.432 379.653 508.447C418.232 518.214 453.381 536.9 486.816 557.285C514.25 574.272 539.541 597.629 573.404 597.629C641.989 598.054 662.993 510.57 684.854 461.732C713.574 397.181 762.012 340.699 822.023 302.903C918.899 241.324 1039.35 230.707 1144.8 275.298Z" fill="url(#paint5_linear_29330_39)"/>
<path d="M1144.84 275.557C1160.26 281.925 1174.83 289.568 1188.97 298.485C1283.65 357.078 1343.64 471.293 1326.07 580.414C1308.08 691.232 1189.82 848.756 1072.86 871.684C1034.72 879.326 995.734 868.712 958.458 857.248C895.904 838.141 837.206 807.146 775.509 789.313C751.515 782.519 725.38 780.821 702.243 790.162C661.969 806.297 652.114 841.113 634.976 876.354C615.696 916.266 583.133 949.809 543.716 970.614C462.738 1013.07 358.195 993.117 283.216 947.261C171.818 879.326 131.972 745.58 168.819 624.147C178.245 592.727 193.241 561.732 218.091 539.653C260.508 501.439 324.347 494.646 380.046 508.658C418.607 518.423 453.74 537.105 487.16 557.486C514.581 574.469 539.859 597.822 573.707 597.822C642.26 598.246 663.254 510.781 685.105 461.952C713.812 397.414 762.227 340.944 822.21 303.155C919.041 241.589 1039.44 230.974 1144.84 275.557Z" fill="url(#paint6_radial_29330_39)"/>
<path d="M135.32 1147.59C-58.4312 1002.77 54.7333 683.839 241.198 586.163C311.068 549.641 392.512 535.626 470.956 545.819C541.684 555.161 629.986 578.943 702.429 551.764C757.296 530.955 782.587 479.569 811.307 432.854C891.036 302.903 1092.07 278.696 1191.95 401.853C1228.82 447.293 1243.82 510.57 1225.81 566.203C1183.38 695.305 1041.06 640.097 960.478 709.32C928.329 736.924 919.756 792.132 900.895 829.079C881.606 866.875 858.03 902.973 832.739 937.372C779.586 1009.99 714.86 1076.24 640.274 1127.63C491.531 1230.4 305.496 1260.98 148.18 1156.93C143.893 1153.96 139.607 1150.99 135.32 1147.59Z" fill="url(#paint7_linear_29330_39)"/>
<path d="M135.32 1147.59C-58.4312 1002.77 54.7333 683.839 241.198 586.163C311.068 549.641 392.512 535.626 470.956 545.819C541.684 555.161 629.986 578.943 702.429 551.764C757.296 530.955 782.587 479.569 811.307 432.854C891.036 302.903 1092.07 278.696 1191.95 401.853C1228.82 447.293 1243.82 510.57 1225.81 566.203C1183.38 695.305 1041.06 640.097 960.478 709.32C928.329 736.924 919.756 792.132 900.895 829.079C881.606 866.875 858.03 902.973 832.739 937.372C779.586 1009.99 714.86 1076.24 640.274 1127.63C491.531 1230.4 305.496 1260.98 148.18 1156.93C143.893 1153.96 139.607 1150.99 135.32 1147.59Z" fill="url(#paint8_radial_29330_39)"/>
</g>
<path fill-rule="evenodd" clip-rule="evenodd" d="M747.456 0.572805C756.052 -1.70736 765.686 3.08273 770.549 10.2815C775.195 17.0424 776.459 26.5724 773.123 34.1453C771.905 36.8221 769.961 39.1899 768.085 41.4745C767.795 41.8279 767.507 42.1794 767.223 42.5297C764.72 45.7882 762.357 49.3944 760.899 53.155C759.337 57.1345 758.794 61.4572 758.261 65.6941C758.192 66.2427 758.123 66.7898 758.053 67.3346C757.782 69.1345 757.511 70.9345 757.264 72.7364C757.284 74.8873 757.046 77.0374 756.493 79.1071C756.129 81.6921 755.459 84.2352 753.837 86.2922C752.346 88.2735 750.161 88.9889 747.879 88.9557C747.201 89.037 746.493 89.0086 745.758 88.8483C744.845 88.6712 743.985 88.367 743.167 87.9706C742.932 87.8796 742.701 87.7838 742.475 87.6839C738.783 86.0139 735.741 83.1981 733.406 79.8941C732.393 78.9973 731.372 78.1079 730.351 77.2184C729.947 76.8511 729.542 76.4806 729.137 76.1092C726.004 73.2408 722.809 70.3142 719.06 68.3179C715.532 66.4192 711.415 65.2324 707.417 64.4017C706.975 64.3222 706.53 64.2448 706.082 64.167C703.186 63.6641 700.185 63.1429 697.537 61.9096C690.128 58.3494 684.953 50.2796 684.129 42.0912C683.189 33.4281 687.423 23.4596 695.42 19.5434C703.653 15.5085 713.768 18.0006 721.53 21.6795C723.335 22.5072 725.129 23.4287 726.893 24.4378C727.533 22.6978 728.237 20.9981 728.998 19.3512C732.526 11.4563 738.605 2.91739 747.456 0.572805Z" fill="url(#paint9_linear_29330_39)"/>
<defs>
<linearGradient id="paint0_linear_29330_39" x1="-17.1521" y1="959.246" x2="1460.73" y2="152.172" gradientUnits="userSpaceOnUse">
<stop stop-color="#FF9370"/>
<stop offset="1" stop-color="#FFDF00"/>
</linearGradient>
<radialGradient id="paint1_radial_29330_39" cx="0" cy="0" r="1" gradientUnits="userSpaceOnUse" gradientTransform="translate(581.764 154.93) rotate(79.7207) scale(1206.28 1124.64)">
<stop stop-color="#FEBB40"/>
<stop offset="0.5576" stop-color="#EC4C76"/>
<stop offset="0.9726" stop-color="#D60B52"/>
</radialGradient>
<linearGradient id="paint2_linear_29330_39" x1="1003.01" y1="-168.149" x2="54.838" y2="1348.36" gradientUnits="userSpaceOnUse">
<stop stop-color="#FFDF00"/>
<stop offset="1" stop-color="#FF9370"/>
</linearGradient>
<radialGradient id="paint3_radial_29330_39" cx="0" cy="0" r="1" gradientUnits="userSpaceOnUse" gradientTransform="translate(726.436 394.015) rotate(-122.48) scale(1284.19 2158.72)">
<stop stop-color="#FEBB40"/>
<stop offset="0.5576" stop-color="#EC4C76"/>
<stop offset="0.9726" stop-color="#D60B52"/>
</radialGradient>
<linearGradient id="paint4_linear_29330_39" x1="381.913" y1="461.344" x2="532.113" y2="355.255" gradientUnits="userSpaceOnUse">
<stop stop-color="#EC4C76"/>
<stop offset="0.5183" stop-color="#FEBB40"/>
<stop offset="1" stop-color="white"/>
</linearGradient>
<linearGradient id="paint5_linear_29330_39" x1="89.3663" y1="1008.4" x2="1706.4" y2="117" gradientUnits="userSpaceOnUse">
<stop stop-color="#FF9370"/>
<stop offset="1" stop-color="#FFDF00"/>
</linearGradient>
<radialGradient id="paint6_radial_29330_39" cx="0" cy="0" r="1" gradientUnits="userSpaceOnUse" gradientTransform="translate(747.531 132.791) rotate(79.6257) scale(1313.6 1235.52)">
<stop stop-color="#FEBB40"/>
<stop offset="0.5576" stop-color="#EC4C76"/>
<stop offset="0.9726" stop-color="#D60B52"/>
</radialGradient>
<linearGradient id="paint7_linear_29330_39" x1="1210.45" y1="-218.926" x2="182.503" y2="1440.7" gradientUnits="userSpaceOnUse">
<stop stop-color="#FFDF00"/>
<stop offset="1" stop-color="#FF9370"/>
</linearGradient>
<radialGradient id="paint8_radial_29330_39" cx="0" cy="0" r="1" gradientUnits="userSpaceOnUse" gradientTransform="translate(906.512 393.069) rotate(-122.724) scale(1401.84 2365.81)">
<stop stop-color="#FEBB40"/>
<stop offset="0.5576" stop-color="#EC4C76"/>
<stop offset="0.9726" stop-color="#D60B52"/>
</radialGradient>
<linearGradient id="paint9_linear_29330_39" x1="769.631" y1="39.8964" x2="630.194" y2="71.024" gradientUnits="userSpaceOnUse">
<stop stop-color="#EC4C76"/>
<stop offset="0.5183" stop-color="#FEBB40"/>
<stop offset="1" stop-color="white"/>
</linearGradient>
<clipPath id="clip0_29330_39">
<rect width="1178" height="538" fill="white" transform="matrix(-1 0 0 1 1111 232)"/>
</clipPath>
<clipPath id="clip1_29330_39">
<rect width="425" height="393" fill="white" transform="translate(904 248)"/>
</clipPath>
</defs>
</svg>
