<svg width="91" height="89" viewBox="0 0 91 89" fill="none" xmlns="http://www.w3.org/2000/svg">
<path fill-rule="evenodd" clip-rule="evenodd" d="M63.456 0.572811C72.0522 -1.70736 81.686 3.08273 86.5485 10.2815C91.1947 17.0424 92.459 26.5724 89.1226 34.1453C87.905 36.8221 85.961 39.1899 84.0853 41.4745C83.7951 41.8279 83.5066 42.1794 83.2226 42.5297C80.7199 45.7882 78.357 49.3944 76.8992 53.155C75.3369 57.1345 74.7937 61.4572 74.2612 65.6941C74.1922 66.2427 74.1235 66.7898 74.0527 67.3346C73.7817 69.1346 73.5107 70.9345 73.264 72.7364C73.2836 74.8873 73.0455 77.0374 72.4931 79.1071C72.1289 81.6922 71.4593 84.2352 69.8365 86.2922C68.3455 88.2735 66.161 88.9889 63.8787 88.9557C63.201 89.037 62.4931 89.0086 61.7583 88.8483C60.8452 88.6712 59.9846 88.367 59.1669 87.9706C58.932 87.8796 58.7009 87.7838 58.4745 87.6839C54.7832 86.0139 51.7414 83.1981 49.406 79.8941C48.3925 78.9973 47.3718 78.1079 46.3511 77.2184C45.9466 76.8511 45.5421 76.4806 45.1366 76.1092C42.0044 73.2408 38.8089 70.3142 35.0603 68.3179C31.5319 66.4192 27.4155 65.2324 23.4167 64.4017C22.9754 64.3222 22.53 64.2448 22.082 64.167C19.1865 63.6641 16.1854 63.1429 13.5372 61.9096C6.12763 58.3494 0.952672 50.2796 0.129385 42.0912C-0.811514 33.4281 3.42254 23.4596 11.4202 19.5434C19.6531 15.5085 29.7677 18.0006 37.5301 21.6795C39.3348 22.5072 41.1288 23.4287 42.8933 24.4378C43.5334 22.6979 44.2375 20.9981 44.998 19.3512C48.526 11.4564 54.6047 2.91739 63.456 0.572811Z" fill="url(#paint0_linear_29335_39)"/>
<defs>
<linearGradient id="paint0_linear_29335_39" x1="85.6308" y1="39.8964" x2="-53.8063" y2="71.024" gradientUnits="userSpaceOnUse">
<stop stop-color="#EC4C76"/>
<stop offset="0.5183" stop-color="#FEBB40"/>
<stop offset="1" stop-color="white"/>
</linearGradient>
</defs>
</svg>
