<svg width="17" height="17" viewBox="0 0 17 17" fill="none" xmlns="http://www.w3.org/2000/svg">
<path d="M1.68332 16.149C1.56771 16.1488 1.4534 16.1246 1.34766 16.0778C1.24193 16.0311 1.14708 15.9628 1.06916 15.8774C0.989824 15.7927 0.929286 15.6922 0.891515 15.5825C0.853745 15.4728 0.839594 15.3563 0.849991 15.2407L1.05416 12.9957L10.4858 3.56738L13.4333 6.51405L4.00416 15.9415L1.75916 16.1457C1.73395 16.148 1.70864 16.1491 1.68332 16.149ZM14.0217 5.92488L11.075 2.97821L12.8425 1.21071C12.9199 1.13323 13.0118 1.07177 13.113 1.02983C13.2141 0.987894 13.3226 0.966309 13.4321 0.966309C13.5416 0.966309 13.65 0.987894 13.7512 1.02983C13.8524 1.07177 13.9443 1.13323 14.0217 1.21071L15.7892 2.97821C15.8666 3.05561 15.9281 3.14752 15.97 3.24868C16.012 3.34985 16.0336 3.45828 16.0336 3.5678C16.0336 3.67731 16.012 3.78575 15.97 3.88691C15.9281 3.98808 15.8666 4.07999 15.7892 4.15738L14.0225 5.92405L14.0217 5.92488Z" fill="#111111" fill-opacity="0.6"/>
</svg>
