<svg width="20" height="20" viewBox="0 0 20 20" fill="none" xmlns="http://www.w3.org/2000/svg">
<path d="M10.0003 7.70801C8.50455 7.70801 7.29199 8.92057 7.29199 10.4163C7.29199 11.9121 8.50455 13.1247 10.0003 13.1247C11.4961 13.1247 12.7087 11.9121 12.7087 10.4163C12.7087 8.92057 11.4961 7.70801 10.0003 7.70801Z" fill="#F59256"/>
<path fill-rule="evenodd" clip-rule="evenodd" d="M7.70866 0.208008C6.55807 0.208008 5.62533 1.14075 5.62533 2.29134V2.44015C5.62533 2.8182 5.31885 3.12467 4.9408 3.12467C2.78755 3.12467 1.04199 4.87023 1.04199 7.02348V10.8658C1.04199 12.202 1.04198 13.2494 1.12155 14.0863C1.20265 14.9392 1.3708 15.6376 1.74809 16.2533C2.14319 16.8981 2.68528 17.4401 3.33002 17.8352C3.9457 18.2125 4.64412 18.3807 5.49708 18.4618C6.33389 18.5413 7.38134 18.5413 8.71746 18.5413H11.2831C12.6193 18.5413 13.6668 18.5413 14.5036 18.4618C15.3565 18.3807 16.0549 18.2125 16.6706 17.8352C17.3154 17.4401 17.8575 16.8981 18.2526 16.2533C18.6299 15.6376 18.798 14.9392 18.8791 14.0863C18.9587 13.2494 18.9587 12.202 18.9587 10.8659V7.02348C18.9587 4.87023 17.2131 3.12467 15.0598 3.12467C14.6818 3.12467 14.3753 2.8182 14.3753 2.44015V2.29134C14.3753 1.14075 13.4426 0.208008 12.292 0.208008H7.70866ZM6.04199 10.4163C6.04199 8.23021 7.8142 6.45801 10.0003 6.45801C12.1865 6.45801 13.9587 8.23021 13.9587 10.4163C13.9587 12.6025 12.1865 14.3747 10.0003 14.3747C7.8142 14.3747 6.04199 12.6025 6.04199 10.4163ZM15.0003 7.91634C14.5401 7.91634 14.167 7.54325 14.167 7.08301C14.167 6.62277 14.5401 6.24967 15.0003 6.24967C15.4606 6.24967 15.8337 6.62277 15.8337 7.08301C15.8337 7.54325 15.4606 7.91634 15.0003 7.91634Z" fill="#F59256"/>
</svg>
