<svg width="1400" height="778" viewBox="0 0 1400 778" fill="none" xmlns="http://www.w3.org/2000/svg">
<g filter="url(#filter0_dd_29207_529)">
<g clip-path="url(#clip0_29207_529)">
<path d="M1010.27 285.833C1024.31 291.685 1037.58 298.707 1050.45 306.899C1136.65 360.732 1191.26 465.669 1175.27 565.925C1158.89 667.74 1051.23 812.467 944.74 833.532C910.024 840.554 874.528 830.802 840.593 820.269C783.643 802.715 730.204 774.237 674.034 757.853C652.191 751.612 628.397 750.051 607.333 758.633C570.667 773.457 561.695 805.445 546.093 837.824C528.54 874.493 498.895 905.311 463.008 924.426C389.286 963.435 294.11 945.101 225.848 902.97C124.431 840.554 88.1549 717.673 121.701 606.105C130.282 577.237 143.934 548.76 166.558 528.475C205.175 493.366 263.295 487.125 314.003 499.998C349.109 508.97 381.095 526.134 411.52 544.859C436.484 560.463 459.498 581.919 490.313 581.919C552.724 582.309 571.837 501.948 591.73 457.087C617.865 397.792 661.942 345.909 716.552 311.19C804.707 254.626 914.315 244.873 1010.27 285.833Z" fill="url(#paint0_linear_29207_529)"/>
<path d="M1010.3 286.071C1024.34 291.921 1037.6 298.941 1050.46 307.132C1136.63 360.954 1191.21 465.87 1175.22 566.105C1158.85 667.9 1051.24 812.597 944.803 833.658C910.104 840.678 874.624 830.928 840.704 820.397C783.781 802.847 730.367 774.375 674.224 757.994C652.39 751.754 628.607 750.194 607.553 758.774C570.904 773.595 561.937 805.577 546.342 837.948C528.797 874.61 499.166 905.422 463.296 924.533C389.608 963.535 294.476 945.204 226.247 903.082C124.877 840.678 88.6177 717.822 122.148 606.277C130.725 577.415 144.371 548.944 166.984 528.663C205.583 493.561 263.676 487.321 314.361 500.191C349.45 509.162 381.421 526.323 411.832 545.044C436.784 560.644 459.787 582.095 490.588 582.095C552.97 582.485 572.074 502.141 591.958 457.289C618.08 398.006 662.137 346.134 716.721 311.422C804.835 254.869 914.392 245.119 1010.3 286.071Z" fill="url(#paint1_radial_29207_529)"/>
<path d="M91.6655 1087.1C-84.6445 954.073 18.333 661.109 188.012 571.386C251.593 537.837 325.705 524.964 397.087 534.326C461.448 542.909 541.802 564.754 607.723 539.788C657.652 520.673 680.666 473.471 706.8 430.56C779.352 311.19 962.293 288.954 1053.18 402.083C1086.72 443.824 1100.38 501.948 1083.99 553.051C1045.38 671.641 915.875 620.928 842.543 684.515C813.288 709.871 805.487 760.584 788.324 794.523C770.771 829.241 749.317 862.4 726.303 893.998C677.935 960.705 619.035 1021.56 551.164 1068.76C415.811 1163.17 246.522 1191.25 103.367 1095.68C99.4668 1092.95 95.5661 1090.22 91.6655 1087.1Z" fill="url(#paint2_linear_29207_529)"/>
<path d="M91.6655 1087.1C-84.6445 954.073 18.333 661.109 188.012 571.386C251.593 537.837 325.705 524.964 397.087 534.326C461.448 542.909 541.802 564.754 607.723 539.788C657.652 520.673 680.666 473.471 706.8 430.56C779.352 311.19 962.293 288.954 1053.18 402.083C1086.72 443.824 1100.38 501.948 1083.99 553.051C1045.38 671.641 915.875 620.928 842.543 684.515C813.288 709.871 805.487 760.584 788.324 794.523C770.771 829.241 749.317 862.4 726.303 893.998C677.935 960.705 619.035 1021.56 551.164 1068.76C415.811 1163.17 246.522 1191.25 103.367 1095.68C99.4668 1092.95 95.5661 1090.22 91.6655 1087.1Z" fill="url(#paint3_radial_29207_529)"/>
<path d="M522.5 441C505.103 441 491 426.897 491 409.5C491 392.103 505.103 378 522.5 378C539.897 378 554 392.103 554 409.5C554 426.897 539.897 441 522.5 441Z" fill="url(#paint4_linear_29207_529)"/>
</g>
<g clip-path="url(#clip1_29207_529)">
<path d="M1211.8 275.298C1227.23 281.669 1241.81 289.313 1255.95 298.231C1350.68 356.837 1410.69 471.075 1393.12 580.218C1375.12 691.059 1256.81 848.614 1139.79 871.547C1101.64 879.191 1062.63 868.574 1025.34 857.108C962.752 837.997 904.026 806.996 842.3 789.159C818.296 782.364 792.148 780.666 769 790.009C728.707 806.146 718.848 840.97 701.702 876.218C682.412 916.138 649.835 949.688 610.399 970.497C529.383 1012.96 424.792 993.005 349.777 947.14C238.327 879.191 198.463 745.417 235.327 623.959C244.757 592.533 259.76 561.532 284.622 539.448C327.059 501.227 390.928 494.432 446.653 508.447C485.232 518.214 520.381 536.9 553.816 557.285C581.25 574.272 606.541 597.629 640.404 597.629C708.989 598.054 729.993 510.57 751.854 461.732C780.574 397.181 829.012 340.699 889.023 302.903C985.899 241.324 1106.35 230.707 1211.8 275.298Z" fill="url(#paint5_linear_29207_529)"/>
<path d="M1211.84 275.557C1227.26 281.925 1241.83 289.568 1255.97 298.485C1350.65 357.078 1410.64 471.293 1393.07 580.414C1375.08 691.232 1256.82 848.756 1139.86 871.684C1101.72 879.326 1062.73 868.712 1025.46 857.248C962.904 838.141 904.206 807.146 842.509 789.313C818.515 782.519 792.38 780.821 769.243 790.162C728.969 806.297 719.114 841.113 701.976 876.354C682.696 916.266 650.133 949.809 610.716 970.614C529.738 1013.07 425.195 993.117 350.216 947.261C238.818 879.326 198.972 745.58 235.819 624.147C245.245 592.727 260.241 561.732 285.091 539.653C327.508 501.439 391.347 494.646 447.046 508.658C485.607 518.423 520.74 537.105 554.16 557.486C581.581 574.469 606.859 597.822 640.707 597.822C709.26 598.246 730.254 510.781 752.105 461.952C780.812 397.414 829.227 340.944 889.21 303.155C986.041 241.589 1106.44 230.974 1211.84 275.557Z" fill="url(#paint6_radial_29207_529)"/>
<path d="M202.32 1147.59C8.56875 1002.77 121.733 683.839 308.198 586.163C378.068 549.641 459.512 535.626 537.956 545.819C608.684 555.161 696.986 578.943 769.429 551.764C824.296 530.955 849.587 479.569 878.307 432.854C958.036 302.903 1159.07 278.696 1258.95 401.853C1295.82 447.293 1310.82 510.57 1292.81 566.203C1250.38 695.305 1108.06 640.097 1027.48 709.32C995.329 736.924 986.756 792.132 967.895 829.079C948.606 866.875 925.03 902.973 899.739 937.372C846.586 1009.99 781.86 1076.24 707.274 1127.63C558.531 1230.4 372.496 1260.98 215.18 1156.93C210.893 1153.96 206.607 1150.99 202.32 1147.59Z" fill="url(#paint7_linear_29207_529)"/>
<path d="M202.32 1147.59C8.56875 1002.77 121.733 683.839 308.198 586.163C378.068 549.641 459.512 535.626 537.956 545.819C608.684 555.161 696.986 578.943 769.429 551.764C824.296 530.955 849.587 479.569 878.307 432.854C958.036 302.903 1159.07 278.696 1258.95 401.853C1295.82 447.293 1310.82 510.57 1292.81 566.203C1250.38 695.305 1108.06 640.097 1027.48 709.32C995.329 736.924 986.756 792.132 967.895 829.079C948.606 866.875 925.03 902.973 899.739 937.372C846.586 1009.99 781.86 1076.24 707.274 1127.63C558.531 1230.4 372.496 1260.98 215.18 1156.93C210.893 1153.96 206.607 1150.99 202.32 1147.59Z" fill="url(#paint8_radial_29207_529)"/>
</g>
<path fill-rule="evenodd" clip-rule="evenodd" d="M814.456 0.572805C823.052 -1.70736 832.686 3.08273 837.549 10.2815C842.195 17.0424 843.459 26.5724 840.123 34.1453C838.905 36.8221 836.961 39.1899 835.085 41.4745C834.795 41.8279 834.507 42.1794 834.223 42.5297C831.72 45.7882 829.357 49.3944 827.899 53.155C826.337 57.1345 825.794 61.4572 825.261 65.6941C825.192 66.2427 825.123 66.7898 825.053 67.3346C824.782 69.1345 824.511 70.9345 824.264 72.7364C824.284 74.8873 824.046 77.0374 823.493 79.1071C823.129 81.6921 822.459 84.2352 820.837 86.2922C819.346 88.2735 817.161 88.9889 814.879 88.9557C814.201 89.037 813.493 89.0086 812.758 88.8483C811.845 88.6712 810.985 88.367 810.167 87.9706C809.932 87.8796 809.701 87.7838 809.475 87.6839C805.783 86.0139 802.741 83.1981 800.406 79.8941C799.393 78.9973 798.372 78.1079 797.351 77.2184C796.947 76.8511 796.542 76.4806 796.137 76.1092C793.004 73.2408 789.809 70.3142 786.06 68.3179C782.532 66.4192 778.415 65.2324 774.417 64.4017C773.975 64.3222 773.53 64.2448 773.082 64.167C770.186 63.6641 767.185 63.1429 764.537 61.9096C757.128 58.3494 751.953 50.2796 751.129 42.0912C750.189 33.4281 754.423 23.4596 762.42 19.5434C770.653 15.5085 780.768 18.0006 788.53 21.6795C790.335 22.5072 792.129 23.4287 793.893 24.4378C794.533 22.6978 795.237 20.9981 795.998 19.3512C799.526 11.4563 805.605 2.91739 814.456 0.572805Z" fill="url(#paint9_linear_29207_529)"/>
</g>
<defs>
<filter id="filter0_dd_29207_529" x="-4" y="0" width="1404" height="778" filterUnits="userSpaceOnUse" color-interpolation-filters="sRGB">
<feFlood flood-opacity="0" result="BackgroundImageFix"/>
<feColorMatrix in="SourceAlpha" type="matrix" values="0 0 0 0 0 0 0 0 0 0 0 0 0 0 0 0 0 0 127 0" result="hardAlpha"/>
<feOffset dy="4"/>
<feGaussianBlur stdDeviation="2"/>
<feComposite in2="hardAlpha" operator="out"/>
<feColorMatrix type="matrix" values="0 0 0 0 0 0 0 0 0 0 0 0 0 0 0 0 0 0 0.25 0"/>
<feBlend mode="normal" in2="BackgroundImageFix" result="effect1_dropShadow_29207_529"/>
<feColorMatrix in="SourceAlpha" type="matrix" values="0 0 0 0 0 0 0 0 0 0 0 0 0 0 0 0 0 0 127 0" result="hardAlpha"/>
<feOffset dy="4"/>
<feGaussianBlur stdDeviation="2"/>
<feComposite in2="hardAlpha" operator="out"/>
<feColorMatrix type="matrix" values="0 0 0 0 0 0 0 0 0 0 0 0 0 0 0 0 0 0 0.25 0"/>
<feBlend mode="normal" in2="effect1_dropShadow_29207_529" result="effect2_dropShadow_29207_529"/>
<feBlend mode="normal" in="SourceGraphic" in2="effect2_dropShadow_29207_529" result="shape"/>
</filter>
<linearGradient id="paint0_linear_29207_529" x1="49.8479" y1="959.246" x2="1527.73" y2="152.172" gradientUnits="userSpaceOnUse">
<stop stop-color="#FF9370"/>
<stop offset="1" stop-color="#FFDF00"/>
</linearGradient>
<radialGradient id="paint1_radial_29207_529" cx="0" cy="0" r="1" gradientUnits="userSpaceOnUse" gradientTransform="translate(648.764 154.93) rotate(79.7207) scale(1206.28 1124.64)">
<stop stop-color="#FEBB40"/>
<stop offset="0.5576" stop-color="#EC4C76"/>
<stop offset="0.9726" stop-color="#D60B52"/>
</radialGradient>
<linearGradient id="paint2_linear_29207_529" x1="1070.01" y1="-168.149" x2="121.837" y2="1348.36" gradientUnits="userSpaceOnUse">
<stop stop-color="#FFDF00"/>
<stop offset="1" stop-color="#FF9370"/>
</linearGradient>
<radialGradient id="paint3_radial_29207_529" cx="0" cy="0" r="1" gradientUnits="userSpaceOnUse" gradientTransform="translate(793.435 394.015) rotate(-122.48) scale(1284.19 2158.72)">
<stop stop-color="#FEBB40"/>
<stop offset="0.5576" stop-color="#EC4C76"/>
<stop offset="0.9726" stop-color="#D60B52"/>
</radialGradient>
<linearGradient id="paint4_linear_29207_529" x1="448.913" y1="461.344" x2="599.113" y2="355.255" gradientUnits="userSpaceOnUse">
<stop stop-color="#EC4C76"/>
<stop offset="0.5183" stop-color="#FEBB40"/>
<stop offset="1" stop-color="white"/>
</linearGradient>
<linearGradient id="paint5_linear_29207_529" x1="156.366" y1="1008.4" x2="1773.4" y2="117" gradientUnits="userSpaceOnUse">
<stop stop-color="#FF9370"/>
<stop offset="1" stop-color="#FFDF00"/>
</linearGradient>
<radialGradient id="paint6_radial_29207_529" cx="0" cy="0" r="1" gradientUnits="userSpaceOnUse" gradientTransform="translate(814.531 132.791) rotate(79.6257) scale(1313.6 1235.52)">
<stop stop-color="#FEBB40"/>
<stop offset="0.5576" stop-color="#EC4C76"/>
<stop offset="0.9726" stop-color="#D60B52"/>
</radialGradient>
<linearGradient id="paint7_linear_29207_529" x1="1277.45" y1="-218.926" x2="249.503" y2="1440.7" gradientUnits="userSpaceOnUse">
<stop stop-color="#FFDF00"/>
<stop offset="1" stop-color="#FF9370"/>
</linearGradient>
<radialGradient id="paint8_radial_29207_529" cx="0" cy="0" r="1" gradientUnits="userSpaceOnUse" gradientTransform="translate(973.512 393.069) rotate(-122.724) scale(1401.84 2365.81)">
<stop stop-color="#FEBB40"/>
<stop offset="0.5576" stop-color="#EC4C76"/>
<stop offset="0.9726" stop-color="#D60B52"/>
</radialGradient>
<linearGradient id="paint9_linear_29207_529" x1="836.631" y1="39.8964" x2="697.194" y2="71.024" gradientUnits="userSpaceOnUse">
<stop stop-color="#EC4C76"/>
<stop offset="0.5183" stop-color="#FEBB40"/>
<stop offset="1" stop-color="white"/>
</linearGradient>
<clipPath id="clip0_29207_529">
<rect width="1178" height="538" fill="white" transform="matrix(-1 0 0 1 1178 232)"/>
</clipPath>
<clipPath id="clip1_29207_529">
<rect width="425" height="393" fill="white" transform="translate(971 248)"/>
</clipPath>
</defs>
</svg>
