<svg width="1379" height="1203" viewBox="0 0 1379 1203" fill="none" xmlns="http://www.w3.org/2000/svg">
<path d="M504.5 441C487.103 441 473 426.897 473 409.5C473 392.103 487.103 378 504.5 378C521.897 378 536 392.103 536 409.5C536 426.897 521.897 441 504.5 441Z" fill="url(#paint0_linear_29803_65)"/>
<path fill-rule="evenodd" clip-rule="evenodd" d="M796.456 0.572811C805.052 -1.70736 814.686 3.08273 819.548 10.2815C824.195 17.0424 825.459 26.5724 822.123 34.1453C820.905 36.8221 818.961 39.1899 817.085 41.4745C816.795 41.8279 816.507 42.1794 816.223 42.5297C813.72 45.7882 811.357 49.3944 809.899 53.155C808.337 57.1345 807.794 61.4572 807.261 65.6941C807.192 66.2427 807.123 66.7898 807.053 67.3346C806.782 69.1346 806.511 70.9345 806.264 72.7364C806.284 74.8873 806.046 77.0374 805.493 79.1071C805.129 81.6922 804.459 84.2352 802.837 86.2922C801.346 88.2735 799.161 88.9889 796.879 88.9557C796.201 89.037 795.493 89.0086 794.758 88.8483C793.845 88.6712 792.985 88.367 792.167 87.9706C791.932 87.8796 791.701 87.7838 791.474 87.6839C787.783 86.0139 784.741 83.1981 782.406 79.8941C781.393 78.9973 780.372 78.1079 779.351 77.2184C778.947 76.8511 778.542 76.4806 778.137 76.1092C775.004 73.2408 771.809 70.3142 768.06 68.3179C764.532 66.4192 760.415 65.2324 756.417 64.4017C755.975 64.3222 755.53 64.2448 755.082 64.167C752.186 63.6641 749.185 63.1429 746.537 61.9096C739.128 58.3494 733.953 50.2796 733.129 42.0912C732.188 33.4281 736.423 23.4596 744.42 19.5434C752.653 15.5085 762.768 18.0006 770.53 21.6795C772.335 22.5072 774.129 23.4287 775.893 24.4378C776.533 22.6979 777.237 20.9981 777.998 19.3512C781.526 11.4564 787.605 2.91739 796.456 0.572811Z" fill="url(#paint1_linear_29803_65)"/>
<g filter="url(#filter0_d_29803_65)">
<path d="M1193.89 283.305C1209.05 289.443 1223.37 296.809 1237.26 305.402C1330.32 361.874 1389.27 471.954 1372 577.123C1354.32 683.929 1238.1 835.749 1123.15 857.846C1085.68 865.212 1047.36 854.982 1010.73 843.933C949.252 825.518 891.566 795.645 830.933 778.458C807.353 771.911 781.668 770.274 758.93 779.277C719.35 794.827 709.666 828.383 692.823 862.348C673.875 900.814 641.874 933.143 603.136 953.194C523.554 994.116 420.814 974.883 347.128 930.687C237.65 865.212 198.491 736.309 234.703 619.272C243.966 588.99 258.704 559.117 283.126 537.838C324.811 501.009 387.55 494.461 442.289 507.965C480.185 517.377 514.712 535.383 547.555 555.025C574.503 571.394 599.346 593.901 632.61 593.901C699.981 594.31 720.613 510.011 742.088 462.951C770.299 400.75 817.88 346.324 876.829 309.904C971.99 250.567 1090.31 240.337 1193.89 283.305Z" fill="url(#paint2_linear_29803_65)"/>
<path d="M1193.93 283.553C1209.08 289.69 1223.39 297.055 1237.28 305.647C1330.29 362.107 1389.21 472.164 1371.95 577.312C1354.28 684.096 1238.12 835.885 1123.22 857.978C1085.76 865.343 1047.46 855.114 1010.85 844.068C949.402 825.657 891.743 795.79 831.137 778.606C807.569 772.06 781.896 770.423 759.169 779.424C719.607 794.972 709.927 828.521 693.092 862.479C674.153 900.937 642.167 933.259 603.447 953.307C523.902 994.22 421.21 974.991 347.558 930.804C238.132 865.343 198.991 736.465 235.186 619.453C244.445 589.177 259.175 559.31 283.586 538.035C325.252 501.213 387.962 494.667 442.675 508.168C480.553 517.578 515.064 535.58 547.892 555.219C574.828 571.584 599.659 594.086 632.908 594.086C700.247 594.496 720.869 510.214 742.334 463.163C770.532 400.975 818.09 346.56 877.012 310.147C972.129 250.823 1090.39 240.594 1193.93 283.553Z" fill="url(#paint3_radial_29803_65)"/>
<path d="M202.28 1123.84C11.958 984.295 123.12 676.972 306.283 582.852C374.917 547.659 454.92 534.155 531.975 543.976C601.451 552.979 688.19 575.895 759.351 549.705C813.247 529.654 838.09 480.138 866.301 435.124C944.62 309.904 1142.1 286.578 1240.21 405.251C1276.42 449.038 1291.16 510.011 1273.47 563.619C1231.79 688.021 1091.99 634.823 1012.83 701.525C981.253 728.124 972.831 781.323 954.304 816.924C935.356 853.345 912.198 888.128 887.355 921.275C835.143 991.251 771.562 1055.09 698.296 1104.6C552.186 1203.64 369.443 1233.1 214.912 1132.84C210.701 1129.98 206.491 1127.11 202.28 1123.84Z" fill="url(#paint4_linear_29803_65)"/>
<path d="M202.28 1123.84C11.958 984.295 123.12 676.972 306.283 582.852C374.917 547.659 454.92 534.155 531.975 543.976C601.451 552.979 688.19 575.895 759.351 549.705C813.247 529.654 838.09 480.138 866.301 435.124C944.62 309.904 1142.1 286.578 1240.21 405.251C1276.42 449.038 1291.16 510.011 1273.47 563.619C1231.79 688.021 1091.99 634.823 1012.83 701.525C981.253 728.124 972.831 781.323 954.304 816.924C935.356 853.345 912.198 888.128 887.355 921.275C835.143 991.251 771.562 1055.09 698.296 1104.6C552.186 1203.64 369.443 1233.1 214.912 1132.84C210.701 1129.98 206.491 1127.11 202.28 1123.84Z" fill="url(#paint5_radial_29803_65)"/>
</g>
<g filter="url(#filter1_d_29803_65)">
<path d="M983.86 303.325C997.478 308.964 1010.34 315.73 1022.82 323.624C1106.42 375.498 1159.38 476.614 1143.87 573.22C1127.99 671.329 1023.58 810.787 920.308 831.085C886.641 837.851 852.217 828.454 819.306 818.305C764.077 801.389 712.252 773.949 657.779 758.161C636.595 752.147 613.52 750.643 593.093 758.913C557.534 773.197 548.833 804.021 533.702 835.22C516.679 870.554 487.93 900.25 453.128 918.669C381.632 956.259 289.331 938.592 223.131 897.995C124.777 837.851 89.5971 719.444 122.13 611.937C130.452 584.121 143.692 556.68 165.632 537.133C203.082 503.303 259.446 497.288 308.623 509.693C342.669 518.339 373.688 534.878 403.194 552.921C427.404 567.957 449.723 588.631 479.608 588.631C540.133 589.007 558.669 511.572 577.961 468.344C603.306 411.208 646.052 361.214 699.012 327.759C784.504 273.254 890.802 263.856 983.86 303.325Z" fill="url(#paint6_linear_29803_65)"/>
<path d="M983.891 303.554C997.503 309.191 1010.36 315.956 1022.84 323.848C1106.4 375.711 1159.33 476.807 1143.83 573.393C1127.95 671.482 1023.59 810.912 920.369 831.206C886.718 837.971 852.31 828.575 819.415 818.428C764.211 801.516 712.41 774.081 657.963 758.297C636.789 752.284 613.724 750.781 593.307 759.049C557.764 773.33 549.068 804.147 533.944 835.34C516.929 870.667 488.193 900.357 453.407 918.772C381.945 956.354 289.687 938.691 223.518 898.102C125.21 837.971 90.046 719.587 122.563 612.103C130.882 584.292 144.115 556.857 166.046 537.314C203.478 503.491 259.816 497.477 308.97 509.879C343 518.523 374.004 535.059 403.497 553.099C427.696 568.132 450.004 588.802 479.874 588.802C540.372 589.178 558.899 511.759 578.182 468.539C603.515 411.414 646.242 361.43 699.177 327.982C784.629 273.488 890.877 264.093 983.891 303.554Z" fill="url(#paint7_radial_29803_65)"/>
<path d="M93.0022 1075.42C-77.9821 947.237 21.8849 664.939 186.438 578.482C248.099 546.155 319.972 533.75 389.198 542.772C451.615 551.042 529.542 572.092 593.472 548.035C641.892 529.616 664.211 484.132 689.556 442.783C759.916 327.759 937.331 306.333 1025.47 415.343C1058 455.564 1071.24 511.573 1055.36 560.815C1017.91 675.088 892.316 626.221 821.198 687.492C792.827 711.926 785.261 760.792 768.617 793.495C751.594 826.95 730.789 858.902 708.47 889.349C661.563 953.628 604.442 1012.27 538.62 1057.75C407.356 1148.72 243.181 1175.78 104.351 1083.69C100.568 1081.06 96.785 1078.43 93.0022 1075.42Z" fill="url(#paint8_linear_29803_65)"/>
<path d="M93.0022 1075.42C-77.9821 947.237 21.8849 664.939 186.438 578.482C248.099 546.155 319.972 533.75 389.198 542.772C451.615 551.042 529.542 572.092 593.472 548.035C641.892 529.616 664.211 484.132 689.556 442.783C759.916 327.759 937.331 306.333 1025.47 415.343C1058 455.564 1071.24 511.573 1055.36 560.815C1017.91 675.088 892.316 626.221 821.198 687.492C792.827 711.926 785.261 760.792 768.617 793.495C751.594 826.95 730.789 858.902 708.47 889.349C661.563 953.628 604.442 1012.27 538.62 1057.75C407.356 1148.72 243.181 1175.78 104.351 1083.69C100.568 1081.06 96.785 1078.43 93.0022 1075.42Z" fill="url(#paint9_radial_29803_65)"/>
</g>
<defs>
<filter id="filter0_d_29803_65" x="99.2119" y="257" width="1279.79" height="946" filterUnits="userSpaceOnUse" color-interpolation-filters="sRGB">
<feFlood flood-opacity="0" result="BackgroundImageFix"/>
<feColorMatrix in="SourceAlpha" type="matrix" values="0 0 0 0 0 0 0 0 0 0 0 0 0 0 0 0 0 0 127 0" result="hardAlpha"/>
<feOffset dy="4"/>
<feGaussianBlur stdDeviation="2"/>
<feComposite in2="hardAlpha" operator="out"/>
<feColorMatrix type="matrix" values="0 0 0 0 0 0 0 0 0 0 0 0 0 0 0 0 0 0 0.25 0"/>
<feBlend mode="normal" in2="BackgroundImageFix" result="effect1_dropShadow_29803_65"/>
<feBlend mode="normal" in="SourceGraphic" in2="effect1_dropShadow_29803_65" result="shape"/>
</filter>
<filter id="filter1_d_29803_65" x="0" y="279.163" width="1150.57" height="869.624" filterUnits="userSpaceOnUse" color-interpolation-filters="sRGB">
<feFlood flood-opacity="0" result="BackgroundImageFix"/>
<feColorMatrix in="SourceAlpha" type="matrix" values="0 0 0 0 0 0 0 0 0 0 0 0 0 0 0 0 0 0 127 0" result="hardAlpha"/>
<feOffset dy="4"/>
<feGaussianBlur stdDeviation="2"/>
<feComposite in2="hardAlpha" operator="out"/>
<feColorMatrix type="matrix" values="0 0 0 0 0 0 0 0 0 0 0 0 0 0 0 0 0 0 0.25 0"/>
<feBlend mode="normal" in2="BackgroundImageFix" result="effect1_dropShadow_29803_65"/>
<feBlend mode="normal" in="SourceGraphic" in2="effect1_dropShadow_29803_65" result="shape"/>
</filter>
<linearGradient id="paint0_linear_29803_65" x1="430.913" y1="461.344" x2="581.113" y2="355.255" gradientUnits="userSpaceOnUse">
<stop stop-color="#EC4C76"/>
<stop offset="0.5183" stop-color="#FEBB40"/>
<stop offset="1" stop-color="white"/>
</linearGradient>
<linearGradient id="paint1_linear_29803_65" x1="818.631" y1="39.8964" x2="679.194" y2="71.024" gradientUnits="userSpaceOnUse">
<stop stop-color="#EC4C76"/>
<stop offset="0.5183" stop-color="#FEBB40"/>
<stop offset="1" stop-color="white"/>
</linearGradient>
<linearGradient id="paint2_linear_29803_65" x1="157.14" y1="989.722" x2="1731.17" y2="105.179" gradientUnits="userSpaceOnUse">
<stop stop-color="#FF9370"/>
<stop offset="1" stop-color="#FFDF00"/>
</linearGradient>
<radialGradient id="paint3_radial_29803_65" cx="0" cy="0" r="1" gradientUnits="userSpaceOnUse" gradientTransform="translate(803.654 145.985) rotate(79.4288) scale(1266.59 1212.88)">
<stop stop-color="#FEBB40"/>
<stop offset="0.5576" stop-color="#EC4C76"/>
<stop offset="0.9726" stop-color="#D60B52"/>
</radialGradient>
<linearGradient id="paint4_linear_29803_65" x1="1258.38" y1="-192.928" x2="276.448" y2="1423.18" gradientUnits="userSpaceOnUse">
<stop stop-color="#FFDF00"/>
<stop offset="1" stop-color="#FF9370"/>
</linearGradient>
<radialGradient id="paint5_radial_29803_65" cx="0" cy="0" r="1" gradientUnits="userSpaceOnUse" gradientTransform="translate(959.822 396.788) rotate(-123.227) scale(1358.52 2310.74)">
<stop stop-color="#FEBB40"/>
<stop offset="0.5576" stop-color="#EC4C76"/>
<stop offset="0.9726" stop-color="#D60B52"/>
</radialGradient>
<linearGradient id="paint6_linear_29803_65" x1="52.4473" y1="952.222" x2="1481.45" y2="166.82" gradientUnits="userSpaceOnUse">
<stop stop-color="#FF9370"/>
<stop offset="1" stop-color="#FFDF00"/>
</linearGradient>
<radialGradient id="paint7_radial_29803_65" cx="0" cy="0" r="1" gradientUnits="userSpaceOnUse" gradientTransform="translate(633.272 177.187) rotate(79.656) scale(1162.6 1090.44)">
<stop stop-color="#FEBB40"/>
<stop offset="0.5576" stop-color="#EC4C76"/>
<stop offset="0.9726" stop-color="#D60B52"/>
</radialGradient>
<linearGradient id="paint8_linear_29803_65" x1="1041.8" y1="-134.129" x2="130.718" y2="1332.42" gradientUnits="userSpaceOnUse">
<stop stop-color="#FFDF00"/>
<stop offset="1" stop-color="#FF9370"/>
</linearGradient>
<radialGradient id="paint9_radial_29803_65" cx="0" cy="0" r="1" gradientUnits="userSpaceOnUse" gradientTransform="translate(773.574 407.568) rotate(-122.647) scale(1239.74 2089.63)">
<stop stop-color="#FEBB40"/>
<stop offset="0.5576" stop-color="#EC4C76"/>
<stop offset="0.9726" stop-color="#D60B52"/>
</radialGradient>
</defs>
</svg>
